<svg xmlns="http://www.w3.org/2000/svg" width="1500" height="1500" viewBox="0 0 1500 1500" version="1.1">
	<path d="M 764 491.615 C 751.647 493.087, 733.095 496.616, 722.671 499.474 C 658.412 517.097, 600.987 564.968, 570.910 625.985 C 569.304 629.244, 568.857 629.483, 564.040 629.657 C 558.399 629.861, 554.473 631.868, 552.881 635.361 C 552.316 636.602, 550.529 638.117, 548.909 638.728 C 543.376 640.817, 542.733 644.433, 543.272 670.463 C 543.535 683.133, 544.217 694.850, 544.789 696.500 C 545.360 698.150, 545.926 699.050, 546.046 698.500 C 546.871 694.709, 547.347 706.190, 546.668 713.500 C 544.868 732.887, 547.477 765.897, 552.439 786.500 C 553.847 792.348, 553.823 792.588, 551.488 796 C 544.125 806.761, 542.809 814.987, 543.200 847.805 L 543.500 872.958 546.271 875.729 L 549.041 878.500 570.080 878.823 C 582.997 879.021, 591.580 878.764, 592.312 878.156 C 593.911 876.829, 595.283 877.995, 602.226 886.582 C 610.464 896.771, 631.944 917.325, 643.007 925.605 C 668.077 944.370, 697.966 958.514, 728 965.825 C 777.120 977.782, 829.880 974.437, 875.662 956.464 C 880.515 954.559, 884.764 953, 885.103 953 C 885.442 953, 889.436 958.610, 893.979 965.468 L 902.237 977.935 898.564 983.469 C 888.774 998.218, 888.281 1017.396, 897.322 1031.718 C 898.713 1033.921, 906.931 1046.473, 915.585 1059.612 C 924.239 1072.750, 936.352 1091.150, 942.502 1100.500 C 948.652 1109.850, 964.237 1133.475, 977.135 1153 C 990.033 1172.525, 1007.537 1199.075, 1016.033 1212 C 1060.263 1279.288, 1065.144 1286.232, 1071.676 1291.150 C 1086.518 1302.327, 1104.499 1303.861, 1121.236 1295.381 C 1123.919 1294.021, 1131.601 1289.185, 1138.307 1284.633 C 1145.013 1280.082, 1155.900 1272.685, 1162.500 1268.196 C 1177.866 1257.744, 1183.206 1252.431, 1187.826 1243 C 1191.410 1235.683, 1191.500 1235.219, 1191.500 1224 C 1191.500 1213.203, 1191.310 1212.102, 1188.399 1206 C 1186.694 1202.425, 1173.393 1181.500, 1158.841 1159.500 C 1144.290 1137.500, 1129.733 1115.450, 1126.493 1110.500 C 1123.254 1105.550, 1108.405 1083.050, 1093.496 1060.500 C 1078.587 1037.950, 1061.464 1011.950, 1055.445 1002.723 C 1016.507 943.036, 1015.582 941.841, 1004 936.211 C 994.785 931.732, 986.401 930.621, 975.874 932.482 C 971.268 933.297, 967.224 933.971, 966.887 933.982 C 966.200 934.002, 952.295 913.144, 951.810 911.366 C 951.639 910.742, 955.855 905.567, 961.178 899.866 C 972.964 887.241, 978.976 879.751, 987.771 866.732 L 994.500 856.771 995.004 864.636 C 995.281 868.961, 996.059 873.465, 996.733 874.645 C 998.946 878.521, 1002.902 879, 1032.681 879 C 1064.175 879, 1067.225 878.514, 1069.239 873.177 C 1069.851 871.556, 1071.502 869.871, 1073.053 869.286 C 1074.557 868.718, 1076.623 866.980, 1077.644 865.423 C 1079.346 862.827, 1079.526 859.704, 1079.809 827.796 L 1080.118 793 1084.059 793 C 1087.990 793, 1088 793.010, 1088 797 L 1088 801 1109.750 800.998 C 1133.462 800.997, 1137.106 800.277, 1139.657 795.093 C 1140.308 793.769, 1142.243 792.097, 1143.958 791.376 C 1149.471 789.058, 1149.996 786.126, 1149.734 759.143 C 1149.514 736.555, 1149.377 734.979, 1147.410 732.346 C 1146.260 730.807, 1144.235 729.244, 1142.910 728.873 C 1141.584 728.503, 1126.662 728.155, 1109.750 728.100 L 1079 728 1079 720 L 1079 712 1074.250 712.004 C 1068.669 712.008, 1063.766 714.618, 1061.650 718.710 C 1060.644 720.656, 1059.996 726.841, 1059.525 739.005 C 1058.865 756.041, 1058.908 756.616, 1061.174 760.926 C 1065.430 769.023, 1065.301 769, 1106.734 769 C 1130.245 769, 1143 769.352, 1143 770 C 1143 770.649, 1129.833 771, 1105.500 771 C 1081.167 771, 1068 770.649, 1068 770 C 1068 769.450, 1067.483 769, 1066.851 769 C 1066.219 769, 1064.082 767.332, 1062.101 765.294 L 1058.500 761.589 1058.194 740.796 L 1057.888 720.002 1062.374 715.254 C 1066.625 710.755, 1067.192 710.479, 1073.180 710.003 L 1079.500 709.500 1079.792 701.750 L 1080.084 694 1084.042 694 L 1088 694 1088 698.057 L 1088 702.114 1124.296 701.807 C 1157.636 701.525, 1160.822 701.349, 1163.416 699.648 C 1164.970 698.630, 1166.469 696.924, 1166.747 695.859 C 1167.026 694.793, 1168.788 693.280, 1170.663 692.496 C 1176.414 690.093, 1177 687.227, 1177 661.500 C 1177 637.173, 1176.367 633.413, 1171.835 630.830 C 1169.947 629.754, 1154.580 629.500, 1091.500 629.500 C 1048.600 629.500, 1012.244 629.851, 1010.709 630.279 C 1008.924 630.778, 1008.166 631.499, 1008.606 632.279 C 1009.073 633.108, 1008.956 633.179, 1008.243 632.500 C 1007.665 631.950, 1004.967 627.225, 1002.247 622 C 992.277 602.845, 984.626 591.594, 969.837 574.343 C 938.884 538.235, 894.614 511.019, 846.500 498.519 C 826.751 493.389, 814.159 491.824, 790 491.500 C 777.625 491.333, 765.925 491.385, 764 491.615 M 768.500 560.638 C 751.730 562.428, 728.663 569.145, 712.661 576.898 C 671.100 597.036, 639.766 632.216, 625.959 674.241 C 620.820 689.884, 619.218 696.786, 617.439 710.962 C 613.465 742.621, 617.833 771.834, 631.278 803.500 C 636.730 816.342, 641.158 824.076, 649.870 835.972 C 655.724 843.965, 672.641 862, 674.285 862 C 674.830 862, 677.576 863.822, 680.388 866.049 C 703.340 884.228, 721.474 893.427, 746 899.333 C 762.213 903.237, 774.019 904.328, 793.824 903.750 C 813.133 903.187, 825.258 901.170, 841.500 895.820 C 851.793 892.430, 873.282 882.368, 877 879.199 C 878.375 878.027, 884.225 873.615, 890 869.393 C 912.577 852.890, 930.247 831.097, 944.441 802.247 C 953.996 782.829, 960.006 755.574, 959.995 731.716 C 959.991 721.088, 956.861 696.510, 955.107 693.329 C 954.553 692.323, 952.686 686.775, 950.959 681 C 944.273 658.641, 926.768 628.348, 911.330 612.423 C 885.828 586.117, 855.360 569.807, 818 562.460 C 809.715 560.831, 777.725 559.653, 768.500 560.638 M 787.308 583.012 C 781.818 585.218, 780.605 593.467, 785.337 596.416 C 786.527 597.157, 791.488 598.049, 796.362 598.396 C 819.812 600.070, 844.868 608.882, 862.839 621.775 C 872.319 628.577, 884.815 640.777, 894.307 652.500 C 900.762 660.472, 902.004 661.535, 905.179 661.803 C 909.928 662.205, 914.333 658.605, 914.333 654.321 C 914.333 646.776, 893.848 624.789, 872.763 609.705 C 863.955 603.403, 846.080 594.359, 835 590.598 C 825.504 587.375, 811.536 584.341, 802.500 583.540 C 798.650 583.198, 794.150 582.741, 792.500 582.525 C 790.850 582.308, 788.514 582.527, 787.308 583.012 M 752.864 586.616 C 741.941 589.108, 732.277 592.777, 718.071 599.823 C 702.199 607.697, 698.705 612.859, 704.993 619.147 C 708.558 622.712, 709.302 622.574, 720 616.372 C 729.936 610.611, 742.474 605.385, 753.380 602.458 C 758.264 601.147, 763.101 599.313, 764.130 598.382 C 766.560 596.183, 766.513 591.922, 764.024 588.758 C 761.409 585.433, 759.585 585.083, 752.864 586.616 M 344 630.316 C 340.511 631.234, 339.163 632.204, 338 634.634 C 337.124 636.464, 335.252 638.223, 333.500 638.861 C 327.672 640.984, 327.530 641.757, 327.180 673.380 C 326.860 702.318, 327.248 706.152, 330.200 703.200 C 331.727 701.673, 364 701.482, 364 703 C 364 703.638, 372.500 704, 387.500 704 L 411 704 411 698.500 L 411 693 415 693 L 419 693 419 697 L 419 701 458.435 701 C 482.065 701, 498.914 700.603, 500.476 700.009 C 501.910 699.464, 503.852 697.673, 504.791 696.030 C 505.731 694.387, 507.759 692.519, 509.297 691.880 C 514.981 689.519, 515.500 686.928, 515.500 660.901 C 515.500 635.375, 515.156 633.445, 510.140 630.860 C 506.514 628.992, 350.969 628.482, 344 630.316 M 558 651.059 C 558 651.641, 558.450 651.840, 559 651.500 C 559.550 651.160, 560 650.684, 560 650.441 C 560 650.198, 559.550 650, 559 650 C 558.450 650, 558 650.477, 558 651.059 M 557.079 655.583 C 557.127 656.748, 557.364 656.985, 557.683 656.188 C 557.972 655.466, 557.936 654.603, 557.604 654.271 C 557.272 653.939, 557.036 654.529, 557.079 655.583 M 555 660.059 C 555 660.641, 555.450 660.840, 556 660.500 C 556.550 660.160, 557 659.684, 557 659.441 C 557 659.198, 556.550 659, 556 659 C 555.450 659, 555 659.477, 555 660.059 M 554.158 665 C 554.158 666.375, 554.385 666.938, 554.662 666.250 C 554.940 665.563, 554.940 664.438, 554.662 663.750 C 554.385 663.063, 554.158 663.625, 554.158 665 M 548.079 690.583 C 548.127 691.748, 548.364 691.985, 548.683 691.188 C 548.972 690.466, 548.936 689.603, 548.604 689.271 C 548.272 688.939, 548.036 689.529, 548.079 690.583 M 330.500 704.697 C 329.400 704.991, 328.176 705.742, 327.779 706.366 C 326.463 708.437, 326.971 868.085, 328.306 872 C 329.119 874.384, 330.616 876.057, 333 877.248 C 336.245 878.869, 342.353 878.997, 416.782 878.998 C 504.912 879, 502.994 879.126, 505.239 873.177 C 505.851 871.556, 507.502 869.871, 509.053 869.286 C 510.557 868.718, 512.623 866.980, 513.644 865.423 C 515.316 862.871, 515.500 860.313, 515.500 839.546 C 515.500 826.871, 515.150 815.249, 514.723 813.719 C 514.296 812.189, 512.496 810.054, 510.723 808.973 C 507.637 807.091, 505.452 807.007, 459.250 807.004 L 411 807 411 793 L 411 779 414.940 779 C 418.770 779, 418.888 779.104, 419.190 782.750 L 419.500 786.500 444.741 786.767 C 473.114 787.067, 476.217 786.536, 478.299 781.017 C 478.926 779.358, 480.049 778, 480.796 778 C 481.543 778, 483.469 776.685, 485.077 775.077 C 487.218 772.936, 488 771.197, 488 768.577 L 488 765 443 765 C 413.667 765, 398 764.652, 398 764 C 398 763.348, 413.667 763, 443 763 L 488 763 488 744.547 C 488 733.558, 487.567 725.143, 486.929 723.743 C 484.581 718.591, 484.073 718.522, 446.250 718.202 L 411 717.905 411 711.452 L 411 705 374.625 705 C 354.619 705, 336.956 704.811, 335.375 704.581 C 333.794 704.350, 331.600 704.402, 330.500 704.697 M 1028.158 757 C 1028.158 758.375, 1028.385 758.938, 1028.662 758.250 C 1028.940 757.563, 1028.940 756.438, 1028.662 755.750 C 1028.385 755.063, 1028.158 755.625, 1028.158 757 M 328.999 762.250 C 329 762.663, 344.413 762.903, 363.250 762.784 C 397.372 762.568, 393.533 762.239, 351.249 761.755 C 339.011 761.615, 328.999 761.837, 328.999 762.250 M 1026.079 769.583 C 1026.127 770.748, 1026.364 770.985, 1026.683 770.188 C 1026.972 769.466, 1026.936 768.603, 1026.604 768.271 C 1026.272 767.939, 1026.036 768.529, 1026.079 769.583 M 1025.079 778.583 C 1025.127 779.748, 1025.364 779.985, 1025.683 779.188 C 1025.972 778.466, 1025.936 777.603, 1025.604 777.271 C 1025.272 776.939, 1025.036 777.529, 1025.079 778.583 M 1022.079 791.583 C 1022.127 792.748, 1022.364 792.985, 1022.683 792.188 C 1022.972 791.466, 1022.936 790.603, 1022.604 790.271 C 1022.272 789.939, 1022.036 790.529, 1022.079 791.583 M 554.079 799.583 C 554.127 800.748, 554.364 800.985, 554.683 800.188 C 554.972 799.466, 554.936 798.603, 554.604 798.271 C 554.272 797.939, 554.036 798.529, 554.079 799.583 M 555 804 C 555 804.550, 555.477 805, 556.059 805 C 556.641 805, 556.840 804.550, 556.500 804 C 556.160 803.450, 555.684 803, 555.441 803 C 555.198 803, 555 803.450, 555 804 M 558 813 C 558 813.550, 558.477 814, 559.059 814 C 559.641 814, 559.840 813.550, 559.500 813 C 559.160 812.450, 558.684 812, 558.441 812 C 558.198 812, 558 812.450, 558 813 M 560.079 817.583 C 560.127 818.748, 560.364 818.985, 560.683 818.188 C 560.972 817.466, 560.936 816.603, 560.604 816.271 C 560.272 815.939, 560.036 816.529, 560.079 817.583 M 1013.079 820.583 C 1013.127 821.748, 1013.364 821.985, 1013.683 821.188 C 1013.972 820.466, 1013.936 819.603, 1013.604 819.271 C 1013.272 818.939, 1013.036 819.529, 1013.079 820.583 M 563.079 824.583 C 563.127 825.748, 563.364 825.985, 563.683 825.188 C 563.972 824.466, 563.936 823.603, 563.604 823.271 C 563.272 822.939, 563.036 823.529, 563.079 824.583 M 1009.500 828 C 1009.160 828.550, 1009.359 829, 1009.941 829 C 1010.523 829, 1011 828.550, 1011 828 C 1011 827.450, 1010.802 827, 1010.559 827 C 1010.316 827, 1009.840 827.450, 1009.500 828 M 567 835.500 C 567 836.325, 567.414 837, 567.921 837 C 568.427 837, 569.138 838.350, 569.500 840 C 569.862 841.650, 570.521 843, 570.963 843 C 571.405 843, 572.026 843.993, 572.344 845.206 C 572.661 846.420, 573.193 847.140, 573.526 846.808 C 574.137 846.196, 568.385 834, 567.486 834 C 567.219 834, 567 834.675, 567 835.500 M 578 854.941 C 578 855.459, 578.445 856.157, 578.989 856.493 C 579.555 856.843, 579.723 856.442, 579.382 855.552 C 578.717 853.820, 578 853.503, 578 854.941 M 582 862.893 C 582 863.384, 582.652 864.036, 583.449 864.342 C 584.418 864.714, 584.714 864.418, 584.342 863.449 C 583.735 861.867, 582 861.455, 582 862.893 M 586.211 868.399 C 586.920 869.169, 587.658 869.649, 587.850 869.466 C 588.443 868.902, 586.940 867, 585.902 867 C 585.362 867, 585.501 867.630, 586.211 868.399 M 979.750 947.706 C 977.282 948.089, 977 948.541, 977 952.116 C 977 958.895, 974.931 961.241, 960.264 971.086 C 952.694 976.168, 942.450 983.119, 937.500 986.533 C 922.719 996.728, 921.399 997.100, 912.742 993.509 C 911.333 992.924, 910.566 993.726, 908.870 997.560 C 905.870 1004.342, 906.611 1013.941, 910.741 1021.793 C 912.392 1024.932, 926.094 1046.175, 941.191 1069 C 956.288 1091.825, 973.972 1118.600, 980.490 1128.500 C 987.007 1138.400, 1007.634 1169.675, 1026.327 1198 C 1045.021 1226.325, 1063.677 1254.675, 1067.786 1261 C 1076.802 1274.878, 1079.967 1278.389, 1086.500 1281.755 C 1093.314 1285.268, 1104.397 1285.419, 1110.866 1282.088 C 1118.003 1278.414, 1165.259 1246.803, 1168.368 1243.623 C 1175.616 1236.210, 1178.114 1223.099, 1174.075 1213.674 C 1173.016 1211.203, 1163.416 1195.979, 1152.743 1179.841 C 1142.070 1163.703, 1126.808 1140.600, 1118.829 1128.500 C 1110.849 1116.400, 1096.750 1095.025, 1087.499 1081 C 1078.248 1066.975, 1064.150 1045.600, 1056.172 1033.500 C 1003.767 954.026, 1003.145 953.176, 994.801 949.690 C 990.888 948.055, 983.650 947.101, 979.750 947.706 M 1034.357 1044.970 C 1031.533 1046.138, 1029 1049.855, 1029 1052.829 C 1029 1056.388, 1053.061 1092.251, 1056.500 1093.818 C 1060.359 1095.576, 1065.565 1093.742, 1067.536 1089.930 C 1068.829 1087.430, 1068.847 1086.573, 1067.665 1083.763 C 1065.879 1079.520, 1045.808 1049.004, 1043.372 1046.828 C 1040.940 1044.655, 1037.054 1043.855, 1034.357 1044.970 M 1077.500 1107.772 C 1074.037 1108.513, 1071 1112.110, 1071 1115.471 C 1071 1118.920, 1069.791 1116.967, 1103.827 1168.500 C 1132.092 1211.295, 1130.642 1208.958, 1131.963 1213.862 C 1134.246 1222.340, 1129.368 1229.665, 1115.175 1239.073 C 1111.661 1241.402, 1108.420 1244.395, 1107.883 1245.807 C 1105.740 1251.443, 1109.551 1257.400, 1115.300 1257.400 C 1119.366 1257.399, 1133.910 1247.991, 1139.914 1241.478 C 1151.630 1228.767, 1152.521 1212.972, 1142.468 1196.217 C 1140.582 1193.072, 1126.992 1172.306, 1112.269 1150.069 C 1084.481 1108.099, 1083.208 1106.550, 1077.500 1107.772" stroke="none" fill="black" fill-rule="evenodd"/>
</svg>